<svg width="24" height="24" viewBox="0 0 24 24" fill="none" xmlns="http://www.w3.org/2000/svg">
<g filter="url(#filter0_d_3_4690)">
<path d="M7.08 9.72L5.4 11.4L10.8 16.8L22.8 4.8L21.12 3.12L10.8 13.44L7.08 9.72ZM21.6 12C21.6 17.28 17.28 21.6 12 21.6C6.72 21.6 2.4 17.28 2.4 12C2.4 6.72 6.72 2.4 12 2.4C12.96 2.4 13.8 2.52 14.64 2.76L16.56 0.84C15.12 0.36 13.56 0 12 0C5.4 0 0 5.4 0 12C0 18.6 5.4 24 12 24C18.6 24 24 18.6 24 12H21.6Z" fill="#0B9FFA"/>
</g>
<defs>
<filter id="filter0_d_3_4690" x="-4" y="0" width="32" height="32" filterUnits="userSpaceOnUse" color-interpolation-filters="sRGB">
<feColorMatrix in="SourceAlpha" type="matrix" values="0 0 0 0 0 0 0 0 0 0 0 0 0 0 0 0 0 0 127 0" result="hardAlpha"/>
<feComposite in2="hardAlpha" operator="out"/>
<feColorMatrix type="matrix" values="0 0 0 0 0 0 0 0 0 0 0 0 0 0 0 0 0 0 0.25 0"/>
<feBlend mode="normal" in="SourceGraphic" in2="effect1_dropShadow_3_4690" result="shape"/>
</filter>
</defs>
</svg>
